<svg width="148" height="40" fill="none" xmlns="http://www.w3.org/2000/svg"><path d="M16.513 11.54H0v18.357h4.596v-5.972h8.807l4.018 5.972h5.146l-4.43-6c1.376-.22 2.366-.742 2.972-1.568.605-.826.908-2.147.908-3.908v-1.376c0-1.046-.11-1.872-.303-2.505a4.184 4.184 0 0 0-.99-1.678 4.481 4.481 0 0 0-1.707-1.019c-.66-.192-1.486-.303-2.504-.303Zm-.743 8.34H4.596v-4.294H15.77c.633 0 1.073.11 1.293.303.22.192.358.55.358 1.073v1.541c0 .55-.138.909-.358 1.101-.22.193-.66.276-1.293.276ZM28.778 24.476V11.54h-4.596v12.825c0 1.045.082 1.899.275 2.531a3.65 3.65 0 0 0 1.018 1.68 3.65 3.65 0 0 0 1.679 1.017c.66.22 1.486.303 2.532.303h11.008c1.019 0 1.844-.082 2.505-.302a3.884 3.884 0 0 0 1.706-1.019 3.843 3.843 0 0 0 .991-1.679c.193-.632.303-1.486.303-2.531V11.54h-4.596v12.935c0 .55-.138.908-.358 1.1-.22.193-.66.276-1.293.276h-9.523c-.66 0-1.1-.083-1.321-.276-.22-.192-.33-.55-.33-1.1ZM61.746 29.897v-14.31h8.89V11.54H48.26v4.045h8.89v14.311h4.595ZM77.293 24.476V11.54h-4.596v12.825c0 1.045.083 1.899.275 2.531a3.65 3.65 0 0 0 1.019 1.68 3.649 3.649 0 0 0 1.679 1.017c.66.22 1.486.303 2.532.303H89.21c1.019 0 1.844-.082 2.505-.302a3.883 3.883 0 0 0 1.706-1.019 3.845 3.845 0 0 0 .99-1.679c.193-.632.303-1.486.303-2.531V11.54h-4.596v12.935c0 .55-.137.908-.357 1.1-.22.193-.661.276-1.294.276h-9.522c-.66 0-1.101-.083-1.321-.276-.22-.192-.33-.55-.33-1.1ZM118.006 16.88v-.358c0-1.706-.44-2.972-1.321-3.77-.881-.799-2.284-1.212-4.155-1.212H96.925v18.357h16.513c1.871 0 3.274-.385 4.156-1.183.88-.798 1.32-2.064 1.32-3.77v-.386c0-1.706-.44-2.917-1.32-3.633-.166-.11-.331-.192-.496-.275a6.97 6.97 0 0 0-.716-.303c.606-.33 1.019-.77 1.266-1.266.221-.495.358-1.238.358-2.201Zm-16.485 2.009v-3.303h10.265c.661 0 1.101.11 1.322.303.219.192.33.55.33 1.073v.55c0 .551-.111.909-.33 1.102-.221.192-.661.275-1.322.275h-10.265Zm0 6.963v-3.303h11.201c.633 0 1.073.11 1.294.303.219.192.357.55.357 1.073v.55c0 .551-.138.909-.357 1.101-.221.193-.661.276-1.294.276h-11.201ZM125.148 15.586h15.027V11.54h-19.623v18.357h20.365v-4.045h-15.769v-3.11h14.668l.359-4.046h-15.027v-3.11Z" fill="#fff"/><path d="M144.511 10.432a3.216 3.216 0 1 0 0-6.432 3.216 3.216 0 0 0 0 6.432Z" fill="#F41240"/></svg>